<?xml version="1.0" standalone="no"?> <!DOCTYPE svg PUBLIC "-//W3C//DTD SVG 1.0//EN" "http://www.w3.org/TR/2001/REC-SVG-20010904/DTD/svg10.dtd" > <svg xmlns="http://www.w3.org/2000/svg" width="100%" height="100%">
<defs >
<font id="coolveticarg" horiz-adv-x="416" ><font-face
    font-family="Coolvetica Rg"
    units-per-em="1000"
    panose-1="2 11 6 3 3 6 2 2 0 4"
    ascent="967"
    descent="-233"
    alphabetic="0" />
<missing-glyph horiz-adv-x="452" d="M322 0H129Q32 0 32 84V572Q32 657 129 657H322Q420 657 420 572V84Q420 0 322 0ZM368 84V572Q368 611 322 611H129Q83 611 83 572V84Q83 45 129 45H322Q368 45 368 84Z" />
<glyph unicode=" " glyph-name="space" horiz-adv-x="247" />
<glyph unicode="!" glyph-name="exclam" horiz-adv-x="241" d="M187 0H52V131H187V0ZM155 184H86Q47 422 47 593Q47 644 52 664H190Q194 620 194 590Q194 422 155 184Z" />
<glyph unicode="&quot;" glyph-name="quotedbl" horiz-adv-x="264" d="M112 414H23V664H112V414ZM244 414H155V664H244V414Z" />
<glyph unicode="#" glyph-name="numbersign" horiz-adv-x="496" d="M280 274L295 390H207L191 274H280ZM329 0H242L269 189H181L157 0H72L96 189H9L18 274H107L122 390H35L45 475H133L159 664H242L217 475H306L330 664H416L391 475H479L467 390H380L365 274H453L443
189H354L329 0Z" />
<glyph unicode="$" glyph-name="dollar" horiz-adv-x="477" d="M265 260V83Q302 85 325 109T348 167Q348 201 326 225T265 260ZM224 400V559Q188 557 167 536T145 484Q145 453 166 429T224 400ZM265 -55H224V-16Q112 -6 63 43T14 199H134Q142 136 161 113T224
83V276Q120 303 73 346T26 467Q26 546 82 601T224 658V702H265V658Q450 652 459 464H341Q337 516 319 536T265 559V387Q332 365 372 345T434 299T463 249T470 183Q470 96 414 43T265 -16V-55Z" />
<glyph unicode="%" glyph-name="percent" horiz-adv-x="660" d="M132 384Q156 384 167 413T179 508Q179 576 168 605T132 634Q85 634 85 509T132 384ZM130 331Q17 331 17 510Q17 686 130 686Q245 686 245 511Q245 331 130 331ZM134 -20H67L528 684H596L134 -20ZM535
31Q559 31 570 60T582 155Q582 223 571 252T535 281Q488 281 488 156T535 31ZM533 -22Q420 -22 420 157Q420 333 533 333Q648 333 648 158Q648 -22 533 -22Z" />
<glyph unicode="&amp;" glyph-name="ampersand" horiz-adv-x="498" d="M355 202V381H480V202Q480 101 418 39T256 -23Q146 -23 82 35T18 185Q18 233 41 278T98 339Q21 379 21 478Q21 561 90 612T271 664V555Q204 555 177 534T149 463Q149 421 177 401T271 381V287Q211
287 178 262T145 187Q145 143 173 114T255 84Q355 84 355 202Z" />
<glyph unicode="&apos;" glyph-name="quotesingle" horiz-adv-x="132" d="M112 414H23V664H112V414Z" />
<glyph unicode="(" glyph-name="parenleft" horiz-adv-x="322" d="M322 -143H227Q150 -50 109 65T67 301Q67 547 227 728H322Q200 525 200 299Q200 71 322 -143Z" />
<glyph unicode=")" glyph-name="parenright" horiz-adv-x="322" d="M103 -143H8Q130 71 130 299Q130 525 8 728H103Q263 547 263 301Q263 181 222 66T103 -143Z" />
<glyph unicode="*" glyph-name="asterisk" horiz-adv-x="534" d="M453 260L365 197L267 326L172 197L82 260L178 396L32 442L65 543L208 497V664H326V497L469 543L505 442L357 396L453 260Z" />
<glyph unicode="+" glyph-name="plus" horiz-adv-x="518" d="M305 107H211V296H23V390H211V578H305V390H494V296H305V107Z" />
<glyph unicode="," glyph-name="comma" horiz-adv-x="184" d="M23 -156V-106Q99 -87 100 0H23V135H161V33Q161 -53 131 -96T23 -156Z" />
<glyph unicode="-" glyph-name="hyphen" horiz-adv-x="274" d="M261 257H13V358H261V257Z" />
<glyph unicode="." glyph-name="period" horiz-adv-x="184" d="M162 0H23V135H162V0Z" />
<glyph unicode="/" glyph-name="slash" horiz-adv-x="294" d="M102 0H-5L185 664H294L102 0Z" />
<glyph unicode="0" glyph-name="zero" horiz-adv-x="485" d="M247 82Q295 82 318 140T341 331Q341 466 318 524T247 582Q198 582 175 525T152 333Q152 198 175 140T247 82ZM243 -23Q17 -23 17 335Q17 686 243 686Q473 686 473 337Q473 156 413 67T243 -23Z" />
<glyph unicode="1" glyph-name="one" horiz-adv-x="293" d="M270 0H140V459H4V549Q87 549 122 576T164 664H270V0Z" />
<glyph unicode="2" glyph-name="two" horiz-adv-x="460" d="M456 0H4Q5 100 44 172T204 330Q276 382 301 414T327 488Q327 575 235 575Q188 575 163 548T138 457H13Q13 564 70 625T229 686Q333 686 393 637T454 492Q454 418 413 364T262 232Q223 204 198 171T170
113H456V0Z" />
<glyph unicode="3" glyph-name="three" horiz-adv-x="474" d="M184 298V389Q261 389 290 413T319 480Q319 582 233 582Q194 582 170 553T145 473H24Q24 568 83 627T238 686Q325 686 384 635T444 505Q444 458 424 418T366 356Q465 315 465 192Q465 93 401 35T231
-23Q128 -23 71 35T13 195H138Q138 84 237 84Q279 84 305 113T332 194Q332 252 299 275T184 298Z" />
<glyph unicode="4" glyph-name="four" horiz-adv-x="471" d="M265 246V480L129 246H265ZM392 0H262V145H4V258L246 664H392V246H467V145H392V0Z" />
<glyph unicode="5" glyph-name="five" horiz-adv-x="485" d="M162 261H28L42 664H451V554H158L152 376Q196 423 284 423Q368 423 422 367T476 214Q476 107 413 42T247 -23Q156 -23 93 31T26 171H156Q160 130 184 107T247 83Q346 83 346 208Q346 318 255 318Q190
318 162 261Z" />
<glyph unicode="6" glyph-name="six" horiz-adv-x="482" d="M246 82Q290 82 314 117T339 208Q339 265 313 298T244 332Q200 332 173 298T145 210Q145 152 172 117T246 82ZM455 520H326Q321 582 256 582Q203 582 176 531T143 372Q196 434 279 434Q360 434 413 375T467
214Q467 111 406 44T248 -23Q15 -23 15 310Q15 507 75 596T262 686Q343 686 394 643T455 520Z" />
<glyph unicode="7" glyph-name="seven" horiz-adv-x="473" d="M229 0H95Q106 146 165 288T328 549H4V664H469V564Q359 442 298 297T229 0Z" />
<glyph unicode="8" glyph-name="eight" horiz-adv-x="490" d="M245 84Q341 84 341 194Q341 242 317 270T245 298Q151 298 151 194Q151 84 245 84ZM206 401T245 401T305 425T326 490Q326 532 306 556T245 580T185 556T164 490Q164 450 185 426ZM376 363Q421 343
448 297T475 194Q475 96 417 37T246 -23Q136 -23 76 36T15 188Q15 307 119 357Q80 377 62 416T44 503Q44 582 101 634T246 686Q341 686 393 636T445 507Q445 398 376 363Z" />
<glyph unicode="9" glyph-name="nine" horiz-adv-x="482" d="M238 331Q282 331 309 365T337 453Q337 511 310 546T236 581Q192 581 168 546T143 455Q143 398 169 365T238 331ZM27 143H156Q161 81 226 81Q279 81 306 132T339 291Q286 229 203 229Q122 229 69 288T15
449Q15 552 76 619T234 686Q467 686 467 353Q467 156 407 67T220 -23Q139 -23 88 20T27 143Z" />
<glyph unicode=":" glyph-name="colon" horiz-adv-x="168" d="M152 0H14V135H152V0ZM152 339H14V473H152V339Z" />
<glyph unicode=";" glyph-name="semicolon" horiz-adv-x="154" d="M10 -156V-106Q86 -87 87 0H10V135H148V33Q148 -53 118 -96T10 -156ZM148 339H10V473H148V339Z" />
<glyph unicode="&lt;" glyph-name="less" horiz-adv-x="518" d="M494 96L23 296V390L494 590V486L129 343L494 200V96Z" />
<glyph unicode="=" glyph-name="equal" horiz-adv-x="518" d="M494 396H23V490H494V396ZM494 196H23V290H494V196Z" />
<glyph unicode="&gt;" glyph-name="greater" horiz-adv-x="518" d="M494 296L23 96V200L388 343L23 486V590L494 390V296Z" />
<glyph unicode="?" glyph-name="question" horiz-adv-x="486" d="M314 0H179V131H314V0ZM305 193H183Q183 253 192 289T227 354Q240 369 270 391T317 436T334 492Q334 538 309 559T243 580Q193 580 172 553T145 471H16Q16 569 77 627T240 686Q473 686 473 499Q473
439 450 404T372 328Q330 297 318 269T305 193Z" />
<glyph unicode="@" glyph-name="at" horiz-adv-x="708" d="M336 154Q381 154 408 197T435 307Q435 392 366 392Q319 392 290 354T261 240Q261 196 278 175T336 154ZM615 43L646 -15Q566 -83 364 -83Q197 -83 106 11T15 261Q15 422 110 524T368 626Q436 626 493
610T596 559T667 469T693 337Q693 215 640 144T518 72Q478 72 455 87T427 125Q398 75 321 75Q249 75 213 123T176 240Q176 338 227 402T363 466Q440 466 461 403L474 456H552L500 209Q494 182 494 173Q494 154 517 154Q556 154 587 200T619 327Q619 558 367 558Q281
558 217 515T123 406T92 266Q92 134 165 63T370 -8Q548 -8 615 43Z" />
<glyph unicode="A" glyph-name="A" horiz-adv-x="638" d="M402 251L319 515H318L233 251H402ZM635 0H484L442 137H197L150 0H3L240 664H401L635 0Z" />
<glyph unicode="B" glyph-name="B" horiz-adv-x="570" d="M157 113H333Q380 113 407 139T435 208Q435 292 335 292H157V113ZM324 549H157V405H332Q416 405 416 477Q416 515 395 532T324 549ZM322 0H23V664H350Q446 664 498 616T550 483Q550 441 527 408T469 359Q570
321 570 198Q570 105 507 53T322 0Z" />
<glyph unicode="C" glyph-name="C" horiz-adv-x="608" d="M469 228H608Q587 113 512 45T322 -23Q186 -23 101 67T15 324Q15 492 98 589T324 686Q445 686 521 618T608 446H469Q455 501 415 533T325 566Q241 566 199 505T156 332Q156 220 197 159T318 98Q439 98 469 228Z" />
<glyph unicode="D" glyph-name="D" horiz-adv-x="602" d="M158 113H273Q363 113 404 169T446 339Q446 452 404 500T261 549H158V113ZM301 0H23V664H280Q417 664 502 576T588 339Q588 187 509 94T301 0Z" />
<glyph unicode="E" glyph-name="E" horiz-adv-x="527" d="M527 0H23V664H511V548H158V406H483V289H158V118H527V0Z" />
<glyph unicode="F" glyph-name="F" horiz-adv-x="500" d="M454 280H162V0H23V664H496V548H162V397H454V280Z" />
<glyph unicode="G" glyph-name="G" horiz-adv-x="659" d="M633 0H518L515 66Q491 24 438 1T316 -23Q183 -23 99 82T15 333Q15 487 101 586T342 686Q461 686 543 622T632 459H492Q487 505 443 538T342 571Q257 571 207 507T157 327Q157 269 175 218T237 131T341
94Q409 94 456 138T503 246H356V357H633V0Z" />
<glyph unicode="H" glyph-name="H" horiz-adv-x="582" d="M561 0H421V298H162V0H23V664H162V414H421V664H561V0Z" />
<glyph unicode="I" glyph-name="I" horiz-adv-x="184" d="M162 0H23V664H162V0Z" />
<glyph unicode="J" glyph-name="J" horiz-adv-x="449" d="M288 192V664H427V179Q427 86 371 32T209 -23Q112 -23 58 29T4 183V251H130V190Q130 139 148 115T209 90Q256 90 272 112T288 192Z" />
<glyph unicode="K" glyph-name="K" horiz-adv-x="600" d="M600 0H431L234 299L160 226V0H23V664H160V394L414 664H594L332 402L600 0Z" />
<glyph unicode="L" glyph-name="L" horiz-adv-x="496" d="M491 0H23V664H162V121H491V0Z" />
<glyph unicode="M" glyph-name="M" horiz-adv-x="690" d="M667 0H537V455L413 0H275L152 453V0H23V664H227L347 177L467 664H667V0Z" />
<glyph unicode="N" glyph-name="N" horiz-adv-x="586" d="M564 0H436L152 446V0H23V664H170L434 237V664H564V0Z" />
<glyph unicode="O" glyph-name="O" horiz-adv-x="666" d="M334 96Q414 96 464 153T514 323Q514 440 468 501T334 563Q246 563 199 502T152 323Q152 96 334 96ZM334 -23Q181 -23 98 67T15 326Q15 496 98 591T334 686T568 591T651 323Q651 153 570 65T334 -23Z" />
<glyph unicode="P" glyph-name="P" horiz-adv-x="529" d="M162 354H294Q352 354 379 380T407 453Q407 497 379 523T294 549H162V354ZM162 0H23V664H316Q412 664 470 603T529 449T471 299T316 241H162V0Z" />
<glyph unicode="Q" glyph-name="Q" horiz-adv-x="666" d="M542 -14H664Q664 -109 607 -171T462 -233Q379 -233 326 -177T273 -33V-12Q147 5 81 90T15 326Q15 496 98 591T334 686T568 591T651 323Q651 198 585 106T402 -4Q402 -58 421 -85T474 -112Q504 -112 523
-87T542 -14ZM334 96Q414 96 464 153T514 323Q514 440 468 501T334 563Q246 563 199 502T152 323Q152 96 334 96Z" />
<glyph unicode="R" glyph-name="R" horiz-adv-x="573" d="M337 549H158V372H332Q434 372 434 460Q434 549 337 549ZM546 0H410V171Q410 220 388 240T306 260H158V0H23V664H360Q451 664 507 610T564 472Q564 418 538 377T465 318Q510 304 528 275T546 188V0Z" />
<glyph unicode="S" glyph-name="S" horiz-adv-x="558" d="M531 468H399Q389 569 266 569Q148 569 148 488Q148 431 251 407Q386 375 448 349Q498 328 525 290T552 177Q552 85 480 31T301 -23Q14 -23 6 199H140Q141 149 181 119T283 89Q347 89 382 113T417 178Q417
213 396 233T314 267Q148 302 85 345T21 489Q21 576 84 631T266 686Q385 686 456 627T531 468Z" />
<glyph unicode="T" glyph-name="T" horiz-adv-x="549" d="M343 0H204V548H4V664H544V548H343V0Z" />
<glyph unicode="U" glyph-name="U" horiz-adv-x="581" d="M416 221V664H558V221Q558 101 488 39T285 -23Q161 -23 92 36T23 213V664H164V226Q164 164 195 128T283 92Q416 92 416 221Z" />
<glyph unicode="V" glyph-name="V" horiz-adv-x="588" d="M359 0H228L3 664H151L296 198L440 664H584L359 0Z" />
<glyph unicode="W" glyph-name="W" horiz-adv-x="852" d="M663 0H529L426 432L321 0H191L3 664H151L260 234L352 664H498L599 234L707 664H849L663 0Z" />
<glyph unicode="X" glyph-name="X" horiz-adv-x="600" d="M596 0H427L300 228L166 0H4L219 339L16 664H180L300 449L421 664H582L380 345L596 0Z" />
<glyph unicode="Y" glyph-name="Y" horiz-adv-x="597" d="M372 0H233V251L3 664H165L305 394L434 664H594L372 249V0Z" />
<glyph unicode="Z" glyph-name="Z" horiz-adv-x="527" d="M523 0H4V118L349 548H14V664H523V555L176 118H523V0Z" />
<glyph unicode="[" glyph-name="bracketleft" horiz-adv-x="314" d="M300 -130H72V719H300V630H187V-43H300V-130Z" />
<glyph unicode="\" glyph-name="backslash" horiz-adv-x="288" d="M294 0H187L-5 664H104L294 0Z" />
<glyph unicode="]" glyph-name="bracketright" horiz-adv-x="312" d="M240 -130H10V-43H125V630H10V719H240V-130Z" />
<glyph unicode="^" glyph-name="asciicircum" horiz-adv-x="454" d="M440 473H301L228 560L153 473H15L180 664H273L440 473Z" />
<glyph unicode="_" glyph-name="underscore" horiz-adv-x="482" d="M485 -126H0V-68H485V-126Z" />
<glyph unicode="`" glyph-name="grave" horiz-adv-x="354" d="M273 554L50 648L97 730L304 609L273 554Z" />
<glyph unicode="a" glyph-name="a" horiz-adv-x="481" d="M324 187L325 241Q309 225 241 212Q186 202 165 185T143 135Q143 80 206 80Q256 80 289 111T324 187ZM455 0H334Q328 19 326 44Q274 -13 177 -13Q96 -13 55 23T13 122Q13 163 25 193T53 240T104 269T164
286T239 298Q287 305 304 316T322 354Q322 378 300 391T239 405Q160 405 150 332H29Q32 505 245 505Q358 505 406 457T455 311V0Z" />
<glyph unicode="b" glyph-name="b" horiz-adv-x="519" d="M259 93Q308 93 339 134T370 242Q370 394 258 394Q149 394 149 234Q149 172 180 133T259 93ZM151 0H26V672H154V428Q209 505 300 505Q394 505 448 435T502 251Q502 129 443 58T289 -13Q197 -13 152 60L151 0Z" />
<glyph unicode="c" glyph-name="c" horiz-adv-x="476" d="M338 178H469Q459 93 396 40T243 -13Q139 -13 78 55T17 252Q17 380 78 442T247 505Q343 505 403 454T470 316H339Q334 354 309 375T246 397Q146 397 146 255Q146 179 173 138T242 96Q281 96 307 117T338 178Z" />
<glyph unicode="d" glyph-name="d" horiz-adv-x="518" d="M259 93Q306 93 337 132T369 234Q369 394 260 394Q148 394 148 242Q148 176 179 135T259 93ZM492 0H367L366 60Q321 -13 229 -13Q134 -13 75 58T16 251Q16 365 70 435T218 505Q309 505 364 428V672H492V0Z" />
<glyph unicode="e" glyph-name="e" horiz-adv-x="498" d="M149 294H350Q349 346 320 374T249 402Q209 402 181 373T149 294ZM484 212H145Q148 156 177 123T255 90Q287 90 311 105T343 145H477Q455 70 398 29T261 -13Q15 -13 15 255Q15 370 78 437T253 505Q484
505 484 212Z" />
<glyph unicode="f" glyph-name="f" horiz-adv-x="289" d="M205 0H77V400H4V492H77Q77 672 286 672V567Q237 567 221 552T205 492H289V400H205V0Z" />
<glyph unicode="g" glyph-name="g" horiz-adv-x="525" d="M262 98Q310 98 341 135T373 234Q373 392 262 392T151 242Q151 177 182 138T262 98ZM369 -15V66Q356 33 320 15T234 -4Q121 -4 69 68T16 249Q16 362 78 433T231 505Q323 505 369 431V492H499V-5Q499 -112
430 -172T254 -233Q149 -233 83 -177T16 -27H137Q137 -71 166 -96T245 -121Q298 -121 333 -92T369 -15Z" />
<glyph unicode="h" glyph-name="h" horiz-adv-x="498" d="M472 0H341V305Q341 359 322 380T257 402Q210 402 183 368T156 282V0H26V672H156V428Q170 461 211 483T301 505Q378 505 425 463T472 348V0Z" />
<glyph unicode="i" glyph-name="i" horiz-adv-x="188" d="M159 0H29V492H159V0ZM159 551H29V672H159V551Z" />
<glyph unicode="j" glyph-name="j" horiz-adv-x="183" d="M26 -28V492H157V-33Q157 -121 102 -177T-37 -233Q-136 -233 -185 -179T-235 -27H-113Q-113 -118 -44 -118Q26 -118 26 -28ZM157 551H26V672H157V551Z" />
<glyph unicode="k" glyph-name="k" horiz-adv-x="478" d="M474 0H328L220 221L157 156V0H26V672H157V305L319 492H478L313 311L474 0Z" />
<glyph unicode="l" glyph-name="l" horiz-adv-x="181" d="M156 0H26V672H156V0Z" />
<glyph unicode="m" glyph-name="m" horiz-adv-x="756" d="M730 0H603V298Q603 342 582 370T526 399Q490 399 467 369T443 294V0H313V296Q313 354 296 374T235 395Q156 395 156 299V0H26V492H148V420Q172 467 206 486T292 505Q341 505 370 488T429 427Q468 505
562 505Q635 505 682 458T730 341V0Z" />
<glyph unicode="n" glyph-name="n" horiz-adv-x="498" d="M472 0H341V298Q341 354 323 374T257 395Q156 395 156 282V0H26V492H150V420Q196 505 309 505Q382 505 427 462T472 341V0Z" />
<glyph unicode="o" glyph-name="o" horiz-adv-x="534" d="M149 96T268 96T387 246Q387 395 268 395T149 246Q149 96 268 96ZM268 -13Q150 -13 83 58T15 246Q15 364 83 434T268 505Q383 505 450 435T518 246Q518 129 450 58T268 -13Z" />
<glyph unicode="p" glyph-name="p" horiz-adv-x="518" d="M258 98Q370 98 370 250Q370 316 339 357T259 399Q212 399 181 360T149 258Q149 98 258 98ZM154 -233H26V492H151L152 432Q197 505 289 505Q384 505 443 434T502 241Q502 127 448 57T300 -13Q209 -13 154
64V-233Z" />
<glyph unicode="q" glyph-name="q" horiz-adv-x="518" d="M613 -27H735Q735 -120 682 -176T548 -233T415 -176T362 -28V61Q307 -13 218 -13Q124 -13 70 57T16 241Q16 363 75 434T229 505Q321 505 366 432L367 492H492V-29Q492 -77 508 -97T556 -118Q613 -118 613
-27ZM260 98Q369 98 369 258Q369 320 338 359T259 399Q210 399 179 358T148 250Q148 98 260 98Z" />
<glyph unicode="r" glyph-name="r" horiz-adv-x="315" d="M156 0H26V492H148V433Q177 478 211 491T294 505H311V372Q293 375 275 375Q156 375 156 256V0Z" />
<glyph unicode="s" glyph-name="s" horiz-adv-x="467" d="M447 343H322Q317 377 297 392T234 408Q153 408 153 366Q153 347 172 335T233 311Q270 301 300 293T353 277T395 260T425 241T446 216T457 184T461 140Q461 72 404 30T243 -13Q137 -13 74 33T9 158H143Q143
124 170 105T242 85Q281 85 306 97T332 132Q332 158 314 170T253 192Q117 222 72 260T27 366Q27 427 78 466T238 505Q437 505 447 343Z" />
<glyph unicode="t" glyph-name="t" horiz-adv-x="447" d="M305 196V324H426V184Q426 100 376 44T227 -13Q125 -13 76 43T26 185V625H154V492H426V400H154V198Q154 100 229 100Q305 100 305 196Z" />
<glyph unicode="u" glyph-name="u" horiz-adv-x="495" d="M469 0H346V69Q296 -13 193 -13Q119 -13 73 37T26 168V492H156V188Q156 96 239 96Q287 96 313 127T340 208V492H469V0Z" />
<glyph unicode="v" glyph-name="v" horiz-adv-x="496" d="M315 0H179L3 492H148L251 167L355 492H492L315 0Z" />
<glyph unicode="w" glyph-name="w" horiz-adv-x="710" d="M565 0H432L354 286L276 0H143L3 492H140L220 176L288 492H420L497 176L572 492H706L565 0Z" />
<glyph unicode="x" glyph-name="x" horiz-adv-x="491" d="M488 0H329L243 148L159 0H3L168 251L8 492H165L248 349L332 492H483L320 251L488 0Z" />
<glyph unicode="y" glyph-name="y" horiz-adv-x="495" d="M339 -15V65Q326 33 290 14T206 -5Q128 -5 77 44T26 173V492H156V192Q156 100 239 100Q283 100 311 126T339 192V492H469V-13Q469 -114 405 -173T243 -233Q137 -233 82 -179T26 -27H147Q147 -71 173 -96T249
-121Q286 -121 312 -92T339 -15Z" />
<glyph unicode="z" glyph-name="z" horiz-adv-x="440" d="M433 0H9V100L260 389H26V492H426V387L175 106H433V0Z" />
<glyph unicode="{" glyph-name="braceleft" horiz-adv-x="329" d="M314 -131H277Q174 -131 141 -95T107 27Q107 39 109 89T112 148Q112 206 94 229T30 252V338Q76 338 94 361T112 443Q112 452 110 501T107 562Q107 648 140 684T277 720H314V638H292Q249 638 233
625T217 575Q217 545 220 486T223 397Q223 357 192 329T116 295Q160 289 191 261T223 193Q223 163 220 104T217 14Q217 -22 233 -35T292 -49H314V-131Z" />
<glyph unicode="|" glyph-name="bar" horiz-adv-x="334" d="M218 -125H116V736H218V-125Z" />
<glyph unicode="}" glyph-name="braceright" horiz-adv-x="325" d="M47 -131H10V-49H32Q75 -49 91 -36T107 14Q107 44 104 103T101 193Q101 233 132 261T208 295Q164 301 133 329T101 397Q101 427 104 486T107 575Q107 611 91 624T32 638H10V720H47Q150 720 183
684T217 562Q217 550 215 501T212 443Q212 385 230 362T294 338V252Q248 252 230 229T212 148Q212 139 214 89T217 27Q217 -59 184 -95T47 -131Z" />
<glyph unicode="~" glyph-name="asciitilde" horiz-adv-x="550" d="M525 406V305Q464 238 377 238Q336 238 266 267T161 296Q85 296 25 220V321Q82 388 157 388Q209 388 281 360T383 331Q469 331 525 406Z" />
</font>
</defs>
</svg>
